<svg width="10" height="10" viewBox="0 0 10 10" fill="none" xmlns="http://www.w3.org/2000/svg">
<path d="M3 3.75H5M3 5.5H6.5M5 9.5C7.48528 9.5 9.5 7.48528 9.5 5C9.5 2.51472 7.48528 0.5 5 0.5C2.51472 0.5 0.5 2.51472 0.5 5C0.5 5.59857 0.616868 6.16985 0.829031 6.69226C0.869637 6.79224 0.88994 6.84223 0.898998 6.88264C0.907858 6.92217 0.911098 6.95142 0.911103 6.99193C0.911109 7.03335 0.903591 7.07846 0.888554 7.16868L0.592063 8.94762C0.561015 9.13391 0.545491 9.22705 0.57438 9.29441C0.599665 9.35336 0.646641 9.40034 0.705592 9.42562C0.772947 9.45451 0.866091 9.43899 1.05238 9.40794L2.83133 9.11145C2.92154 9.09641 2.96665 9.08889 3.00807 9.0889C3.04858 9.0889 3.07783 9.09214 3.11736 9.101C3.15777 9.11006 3.20776 9.13036 3.30775 9.17097C3.83015 9.38313 4.40143 9.5 5 9.5Z" stroke="#505050" stroke-linecap="round" stroke-linejoin="round"/>
</svg>
