<svg width="11" height="11" viewBox="0 0 11 11" fill="none" xmlns="http://www.w3.org/2000/svg">
<path d="M5.25 1H2.9C2.05992 1 1.63988 1 1.31901 1.16349C1.03677 1.3073 0.8073 1.53677 0.66349 1.81901C0.5 2.13988 0.5 2.55992 0.5 3.4V7.6C0.5 8.44008 0.5 8.86012 0.66349 9.18099C0.8073 9.46323 1.03677 9.6927 1.31901 9.83651C1.63988 10 2.05992 10 2.9 10H7.5C7.96499 10 8.19748 10 8.38823 9.94889C8.90587 9.81019 9.31019 9.40587 9.44889 8.88823C9.5 8.69748 9.5 8.46499 9.5 8M8.5 3.5V0.5M7 2H10M4.25 3.75C4.25 4.30228 3.80228 4.75 3.25 4.75C2.69772 4.75 2.25 4.30228 2.25 3.75C2.25 3.19772 2.69772 2.75 3.25 2.75C3.80228 2.75 4.25 3.19772 4.25 3.75ZM6.49502 5.45907L2.26557 9.30402C2.02768 9.52029 1.90873 9.62842 1.89821 9.7221C1.88909 9.80329 1.92023 9.88382 1.98159 9.93777C2.05239 10 2.21314 10 2.53464 10H7.22799C7.94757 10 8.30736 10 8.58996 9.87911C8.94472 9.72735 9.22735 9.44472 9.37911 9.08996C9.5 8.80736 9.5 8.44757 9.5 7.72799C9.5 7.48587 9.5 7.36482 9.47353 7.25208C9.44027 7.11039 9.37649 6.97768 9.28663 6.8632C9.21513 6.7721 9.12059 6.69647 8.93154 6.54523L7.53291 5.42633C7.34369 5.27495 7.24908 5.19927 7.1449 5.17256C7.05307 5.14901 6.95643 5.15206 6.86627 5.18135C6.76397 5.21457 6.67432 5.29607 6.49502 5.45907Z" stroke="white" stroke-linecap="round" stroke-linejoin="round"/>
</svg>
