<svg width="20" height="20" viewBox="0 0 20 20" fill="none" xmlns="http://www.w3.org/2000/svg">
<path d="M8.74987 10H4.16653M4.09599 10.2429L2.15022 16.0552C1.99736 16.5118 1.92093 16.7401 1.97578 16.8807C2.02341 17.0028 2.12571 17.0954 2.25195 17.1306C2.39731 17.1712 2.61687 17.0724 3.05598 16.8748L16.9822 10.608C17.4108 10.4151 17.6251 10.3186 17.6913 10.1847C17.7489 10.0683 17.7489 9.93173 17.6913 9.81534C17.6251 9.68137 17.4108 9.58493 16.9822 9.39206L3.05112 3.12311C2.61334 2.92611 2.39444 2.82761 2.24922 2.86801C2.12311 2.90311 2.02082 2.99543 1.97302 3.1173C1.91798 3.25762 1.9936 3.48544 2.14482 3.94107L4.09653 9.82128C4.1225 9.89954 4.13549 9.93866 4.14062 9.97868C4.14517 10.0142 4.14512 10.0501 4.14048 10.0856C4.13525 10.1256 4.12216 10.1647 4.09599 10.2429Z" stroke="#97BBFF" stroke-width="1.5" stroke-linecap="round" stroke-linejoin="round"/>
</svg>
