<svg width="160" height="164" viewBox="0 0 160 164" fill="none" xmlns="http://www.w3.org/2000/svg">
<g clip-path="url(#clip0_106_445)">
<path d="M35.8333 1.24902C16.7335 1.24902 1.25 16.7168 1.25 35.7972V105.726C1.25 124.807 16.7335 140.274 35.8333 140.274H41.2232L46.0413 140.482C54.9588 140.865 63.3134 144.941 69.0977 151.733L74.5816 158.171C77.8307 161.986 83.7658 161.861 86.8508 157.913L90.8917 152.743C96.6742 145.343 105.413 140.849 114.802 140.445L118.777 140.274H124.167C143.267 140.274 158.75 124.807 158.75 105.726V35.7972C158.75 16.7168 143.267 1.24902 124.167 1.24902H35.8333Z" stroke="url(#paint0_radial_106_445)" stroke-width="3"/>
<mask id="mask0_106_445" style="mask-type:luminance" maskUnits="userSpaceOnUse" x="2" y="2" width="156" height="158">
<path d="M157.5 2.49707H2.5V159.837H157.5V2.49707Z" fill="white"/>
</mask>
<g mask="url(#mask0_106_445)">
<g filter="url(#filter0_i_106_445)">
<path fill-rule="evenodd" clip-rule="evenodd" d="M2.5 35.7966C2.5 17.4058 17.4238 2.49707 35.8333 2.49707H124.167C142.576 2.49707 157.5 17.4058 157.5 35.7966V105.725C157.5 122.128 145.628 135.761 130 138.517V81.5834C130 81.1236 129.627 80.7509 129.167 80.7509H117.5H89.1667C88.7067 80.7509 88.3333 81.1236 88.3333 81.5834V153.986L86.6667 156.119V81.1011C86.6667 80.681 86.5075 80.2764 86.2217 79.9685L59.5466 51.2548C58.8903 50.5483 57.7723 50.5445 57.1112 51.2464L30.4528 79.549C30.162 79.8579 30 80.266 30 80.6899V138.517C14.3718 135.761 2.5 122.128 2.5 105.725V35.7966ZM85 81.1011V158.061C82.2707 160.455 77.9903 160.245 75.5337 157.361L70.0497 150.923C67.8553 148.346 65.3049 146.146 62.5 144.371V136.944C62.5 136.484 62.8731 136.111 63.3333 136.111C63.7936 136.111 64.1667 135.738 64.1667 135.279V134.863C64.1667 134.403 63.7936 134.03 63.3333 134.03H53.3333C52.8731 134.03 52.5 134.403 52.5 134.863V135.279C52.5 135.738 52.8731 136.111 53.3333 136.111C53.7936 136.111 54.1667 136.484 54.1667 136.944V140.584C51.5648 139.811 48.8559 139.352 46.095 139.233L41.25 139.025H35.8333C34.4222 139.025 33.0317 138.938 31.6667 138.768V80.6899L58.3249 52.3874L85 81.1011ZM62.7644 49.9488C62.0337 49.9488 61.6568 50.8214 62.1581 51.3524L88.0867 78.8245C88.2442 78.9913 88.4633 79.0859 88.6933 79.0859H128.069C128.8 79.0859 129.177 78.2134 128.675 77.6823L102.747 50.2102C102.589 50.0434 102.37 49.9488 102.14 49.9488H62.7644ZM52.5 90.7407C50.1988 90.7407 48.3333 92.6047 48.3333 94.9032V98.6693C48.3333 98.8883 48.511 99.0656 48.7302 99.0656H56.2698C56.489 99.0656 56.6667 98.8883 56.6667 98.6693V94.9032C56.6667 92.6047 54.8012 90.7407 52.5 90.7407ZM48.3333 106.558C48.3333 104.259 50.1988 102.396 52.5 102.396C54.8012 102.396 56.6667 104.259 56.6667 106.558V110.324C56.6667 110.543 56.489 110.72 56.2698 110.72H48.7302C48.511 110.72 48.3333 110.543 48.3333 110.324V106.558ZM64.1667 90.7407C61.8655 90.7407 60 92.6047 60 94.9032V98.6693C60 98.8883 60.1777 99.0656 60.3968 99.0656H67.9365C68.1557 99.0656 68.3333 98.8883 68.3333 98.6693V94.9032C68.3333 92.6047 66.4678 90.7407 64.1667 90.7407ZM60 106.558C60 104.259 61.8655 102.396 64.1667 102.396C66.4678 102.396 68.3333 104.259 68.3333 106.558V110.324C68.3333 110.543 68.1557 110.72 67.9365 110.72H60.3968C60.1777 110.72 60 110.543 60 110.324V106.558Z" fill="#97BBFF"/>
</g>
<g filter="url(#filter1_ii_106_445)">
<path d="M45.7859 27.8914C45.6731 25.3967 45.6167 22.6526 45.6167 19.6589C45.6167 18.661 45.6328 17.2287 45.665 15.3616C47.9367 15.2329 50.0714 15.1685 52.0692 15.1685C54.0509 15.1685 56.1775 15.2329 58.4492 15.3616V19.5382H50.6192C50.6031 19.9406 50.595 20.5924 50.595 21.4937C50.595 22.4111 50.6031 23.0711 50.6192 23.4734L59.005 23.2803V27.6017C55.9439 27.8271 52.6814 27.9397 49.2175 27.9397C47.6548 27.9397 46.5109 27.9236 45.7859 27.8914ZM47.9367 37.2586C47.8561 35.81 47.8159 34.5063 47.8159 33.3475C47.8159 32.1887 47.8561 30.885 47.9367 29.4365H53.0359V32.8164H66.0859C66.1342 33.5407 66.1584 34.281 66.1584 35.0375C66.1584 35.7778 66.1342 36.5182 66.0859 37.2586C62.7348 37.3391 59.7139 37.3793 57.0234 37.3793C54.3167 37.3793 51.2878 37.3391 47.9367 37.2586ZM59.6817 15.7479C59.7139 15.3777 60.0603 15.1283 60.7209 14.9995C61.3975 14.8547 62.3078 14.7822 63.4517 14.7822C64.0317 14.7822 64.8373 14.7983 65.8684 14.8305C65.9006 15.6836 65.9328 17.2447 65.965 19.5141H68.1159L68.0917 23.8838H65.965C65.965 27.0866 65.9328 29.4606 65.8684 31.0057L60.7692 31.4886V15.9169H60.6725C60.5759 15.9169 60.4631 15.933 60.3342 15.9652C60.2053 15.9813 60.1167 16.0135 60.0684 16.0618L59.6817 15.7479ZM69.0825 32.575C69.6625 31.9956 70.3069 31.1989 71.0159 30.1849C71.7409 29.1709 72.3773 28.0845 72.925 26.9257C73.4728 25.7508 73.7789 24.6724 73.8434 23.6907C73.8917 22.7733 73.9319 21.6467 73.9642 20.3108H70.0492C69.9525 19.5543 69.9042 18.814 69.9042 18.0897C69.9042 17.3332 69.9525 16.5929 70.0492 15.8686C71.8859 15.7238 74.1011 15.6513 76.695 15.6513C79.2728 15.6513 81.48 15.7238 83.3167 15.8686V20.3108H79.2567C79.2406 21.7754 79.1923 23.1032 79.1117 24.2942C80.0944 25.437 81.1094 26.8694 82.1567 28.5915C83.2039 30.3137 83.9367 31.73 84.3559 32.8405L80.4167 35.1099C79.6917 33.5165 78.5881 31.6254 77.1059 29.4365C76.2519 30.9333 75.4706 32.1887 74.7617 33.2027C74.3428 33.7981 73.8836 34.2408 73.3842 34.5305C72.9009 34.8363 72.2644 35.1501 71.475 35.472L69.0825 32.575ZM84.2109 15.8686C84.2434 15.4984 84.6059 15.249 85.2984 15.1202C85.9909 14.9754 86.9175 14.9029 88.0775 14.9029C88.6734 14.9029 89.4875 14.919 90.5184 14.9512C90.615 18.5725 90.6634 22.2019 90.6634 25.8393C90.6634 29.4606 90.615 33.098 90.5184 36.7516L85.2984 37.2344V16.0376H85.2017C85.105 16.0376 84.9925 16.0537 84.8634 16.0859C84.7342 16.102 84.6459 16.1342 84.5975 16.1825L84.2109 15.8686ZM93.8292 26.5394H101.998V25.7186H95.3275C95.1342 23.6907 95.0375 21.7029 95.0375 19.7555C95.0375 18.5001 95.0942 16.9469 95.2067 15.0961C98.5259 14.9673 101.643 14.9029 104.559 14.9029C107.475 14.9029 110.593 14.9673 113.912 15.0961C113.96 15.595 113.984 16.1261 113.984 16.6895C113.984 17.2366 113.96 17.7759 113.912 18.307H100.306L100.258 19.0071H113.67C113.718 19.4094 113.743 19.8601 113.743 20.3591C113.743 20.8258 113.718 21.2765 113.67 21.711H100.258L100.306 22.4353H114.153C114.202 22.9664 114.226 23.5136 114.226 24.0769C114.226 24.6403 114.202 25.1875 114.153 25.7186H107.193V26.5394H115.338V29.9918C110.568 30.024 106.984 30.0401 104.583 30.0401C102.215 30.0401 98.63 30.024 93.8292 29.9918V26.5394ZM94.7717 34.3856C94.7234 33.8062 94.6992 33.2187 94.6992 32.6233C94.6992 32.0116 94.7234 31.4322 94.7717 30.885H114.443C114.524 31.8346 114.564 32.9371 114.564 34.1925C114.564 35.4318 114.524 36.5343 114.443 37.5H109.344V34.3856H94.7717Z" fill="white"/>
</g>
<g filter="url(#filter2_i_106_445)">
<path d="M120.833 15.8171C122.674 15.8171 124.167 14.3263 124.167 12.4872C124.167 10.6481 122.674 9.15723 120.833 9.15723C118.992 9.15723 117.5 10.6481 117.5 12.4872C117.5 14.3263 118.992 15.8171 120.833 15.8171Z" fill="#97BBFF"/>
</g>
</g>
</g>
<defs>
<filter id="filter0_i_106_445" x="2.5" y="2.49707" width="155" height="157.208" filterUnits="userSpaceOnUse" color-interpolation-filters="sRGB">
<feFlood flood-opacity="0" result="BackgroundImageFix"/>
<feBlend mode="normal" in="SourceGraphic" in2="BackgroundImageFix" result="shape"/>
<feColorMatrix in="SourceAlpha" type="matrix" values="0 0 0 0 0 0 0 0 0 0 0 0 0 0 0 0 0 0 127 0" result="hardAlpha"/>
<feOffset/>
<feGaussianBlur stdDeviation="2"/>
<feComposite in2="hardAlpha" operator="arithmetic" k2="-1" k3="1"/>
<feColorMatrix type="matrix" values="0 0 0 0 1 0 0 0 0 1 0 0 0 0 1 0 0 0 0.3 0"/>
<feBlend mode="normal" in2="shape" result="effect1_innerShadow_106_445"/>
</filter>
<filter id="filter1_ii_106_445" x="44.6167" y="13.7822" width="71.7207" height="24.7178" filterUnits="userSpaceOnUse" color-interpolation-filters="sRGB">
<feFlood flood-opacity="0" result="BackgroundImageFix"/>
<feBlend mode="normal" in="SourceGraphic" in2="BackgroundImageFix" result="shape"/>
<feColorMatrix in="SourceAlpha" type="matrix" values="0 0 0 0 0 0 0 0 0 0 0 0 0 0 0 0 0 0 127 0" result="hardAlpha"/>
<feOffset dx="1" dy="1"/>
<feGaussianBlur stdDeviation="1"/>
<feComposite in2="hardAlpha" operator="arithmetic" k2="-1" k3="1"/>
<feColorMatrix type="matrix" values="0 0 0 0 0.279708 0 0 0 0 0.44469 0 0 0 0 0.898389 0 0 0 0.2 0"/>
<feBlend mode="normal" in2="shape" result="effect1_innerShadow_106_445"/>
<feColorMatrix in="SourceAlpha" type="matrix" values="0 0 0 0 0 0 0 0 0 0 0 0 0 0 0 0 0 0 127 0" result="hardAlpha"/>
<feOffset dx="-1" dy="-1"/>
<feGaussianBlur stdDeviation="1"/>
<feComposite in2="hardAlpha" operator="arithmetic" k2="-1" k3="1"/>
<feColorMatrix type="matrix" values="0 0 0 0 0.279708 0 0 0 0 0.44469 0 0 0 0 0.898389 0 0 0 0.2 0"/>
<feBlend mode="normal" in2="effect1_innerShadow_106_445" result="effect2_innerShadow_106_445"/>
</filter>
<filter id="filter2_i_106_445" x="117.5" y="9.15723" width="6.6665" height="6.66016" filterUnits="userSpaceOnUse" color-interpolation-filters="sRGB">
<feFlood flood-opacity="0" result="BackgroundImageFix"/>
<feBlend mode="normal" in="SourceGraphic" in2="BackgroundImageFix" result="shape"/>
<feColorMatrix in="SourceAlpha" type="matrix" values="0 0 0 0 0 0 0 0 0 0 0 0 0 0 0 0 0 0 127 0" result="hardAlpha"/>
<feOffset/>
<feGaussianBlur stdDeviation="1"/>
<feComposite in2="hardAlpha" operator="arithmetic" k2="-1" k3="1"/>
<feColorMatrix type="matrix" values="0 0 0 0 1 0 0 0 0 1 0 0 0 0 1 0 0 0 0.7 0"/>
<feBlend mode="normal" in2="shape" result="effect1_innerShadow_106_445"/>
</filter>
<radialGradient id="paint0_radial_106_445" cx="0" cy="0" r="1" gradientTransform="matrix(-2.49997 108.639 -159.069 -3.65301 82.5 54.9445)" gradientUnits="userSpaceOnUse">
<stop offset="0.948411" stop-color="#A5C4FF"/>
<stop offset="1" stop-color="#97BBFF"/>
</radialGradient>
<clipPath id="clip0_106_445">
<rect width="160" height="164" fill="white"/>
</clipPath>
</defs>
</svg>
