<svg width="18" height="16" viewBox="0 0 18 16" fill="none" xmlns="http://www.w3.org/2000/svg">
<path d="M7.54479 7.89082H2.96146M2.89091 8.13373L0.945142 13.946C0.792281 14.4026 0.71585 14.6309 0.770701 14.7715C0.818334 14.8936 0.920636 14.9862 1.04687 15.0214C1.19223 15.062 1.41179 14.9632 1.8509 14.7656L15.7771 8.49877C16.2057 8.30589 16.42 8.20946 16.4863 8.07549C16.5438 7.9591 16.5438 7.82254 16.4863 7.70615C16.42 7.57218 16.2057 7.47574 15.7771 7.28287L1.84605 1.01392C1.40826 0.816916 1.18937 0.718415 1.04415 0.758822C0.91803 0.793913 0.815738 0.886235 0.76794 1.0081C0.712903 1.14843 0.788517 1.37625 0.939745 1.83188L2.89145 7.71209C2.91743 7.79035 2.93041 7.82947 2.93554 7.86949C2.94009 7.905 2.94004 7.94095 2.9354 7.97645C2.93017 8.01645 2.91708 8.05555 2.89091 8.13373Z" stroke="#97BBFF" stroke-width="1.5" stroke-linecap="round" stroke-linejoin="round"/>
</svg>
