<svg width="70" height="70" viewBox="0 0 70 70" fill="none" xmlns="http://www.w3.org/2000/svg">
<rect width="70" height="70" rx="6" fill="#EDEDED"/>
<path d="M35.5 26H30.8C29.1198 26 28.2798 26 27.638 26.327C27.0735 26.6146 26.6146 27.0735 26.327 27.638C26 28.2798 26 29.1198 26 30.8V39.2C26 40.8802 26 41.7202 26.327 42.362C26.6146 42.9265 27.0735 43.3854 27.638 43.673C28.2798 44 29.1198 44 30.8 44H40C40.93 44 41.395 44 41.7765 43.8978C42.8117 43.6204 43.6204 42.8117 43.8978 41.7765C44 41.395 44 40.93 44 40M42 31V25M39 28H45M33.5 31.5C33.5 32.6046 32.6046 33.5 31.5 33.5C30.3954 33.5 29.5 32.6046 29.5 31.5C29.5 30.3954 30.3954 29.5 31.5 29.5C32.6046 29.5 33.5 30.3954 33.5 31.5ZM37.99 34.9181L29.5311 42.608C29.0554 43.0406 28.8175 43.2568 28.7964 43.4442C28.7782 43.6066 28.8405 43.7676 28.9632 43.8755C29.1048 44 29.4263 44 30.0693 44H39.456C40.8951 44 41.6147 44 42.1799 43.7582C42.8894 43.4547 43.4547 42.8894 43.7582 42.1799C44 41.6147 44 40.8951 44 39.456C44 38.9717 44 38.7296 43.9471 38.5042C43.8805 38.2208 43.753 37.9554 43.5733 37.7264C43.4303 37.5442 43.2412 37.3929 42.8631 37.0905L40.0658 34.8527C39.6874 34.5499 39.4982 34.3985 39.2898 34.3451C39.1061 34.298 38.9129 34.3041 38.7325 34.3627C38.5279 34.4291 38.3486 34.5921 37.99 34.9181Z" stroke="white" stroke-width="2" stroke-linecap="round" stroke-linejoin="round"/>
</svg>
